<?xml version="1.0" encoding="iso-8859-1"?>
<!-- Generator: Adobe Illustrator 19.0.0, SVG Export Plug-In . SVG Version: 6.00 Build 0)  -->
<svg version="1.1" id="Capa_1" xmlns="http://www.w3.org/2000/svg" xmlns:xlink="http://www.w3.org/1999/xlink" x="0px" y="0px"
	 viewBox="0 0 512 512" style="enable-background:new 0 0 512 512;" xml:space="preserve">
<path style="fill:#536080;" d="M409.601,512H102.399c-8.316,0-15.059-6.742-15.059-15.059V15.059C87.34,6.742,94.083,0,102.399,0
	h307.202c8.316,0,15.059,6.742,15.059,15.059v481.883C424.66,505.258,417.918,512,409.601,512z"/>
<path style="fill:#394257;" d="M409.601,0H253.887v512h155.714c8.316,0,15.059-6.742,15.059-15.059V15.059
	C424.66,6.742,417.918,0,409.601,0z"/>
<path style="fill:#05B036;" d="M465.82,512h-56.219c-8.316,0-15.059-6.742-15.059-15.059V15.059C394.542,6.742,401.285,0,409.601,0
	h56.219c8.316,0,15.059,6.742,15.059,15.059v481.883C480.878,505.258,474.137,512,465.82,512z"/>
<path style="fill:#45CC5C;" d="M102.399,512H46.18c-8.316,0-15.059-6.742-15.059-15.059V15.059C31.122,6.742,37.864,0,46.18,0
	h56.219c8.316,0,15.059,6.742,15.059,15.059v481.883C117.457,505.258,110.716,512,102.399,512z"/>
<path style="fill:#D5DEED;" d="M310.941,384.093l-41.995-26.47v-37.87c0-8.316-6.742-15.059-15.059-15.059
	c-8.316,0-15.059,6.742-15.059,15.059v37.871l-41.995,26.47c-7.035,4.434-9.144,13.733-4.709,20.769
	c4.434,7.037,13.733,9.145,20.769,4.709l25.935-16.347v31.873l-17.622,14.557c-6.412,5.297-7.315,14.788-2.019,21.201
	c5.297,6.411,14.788,7.314,21.2,2.019l13.5-11.151l13.5,11.151c2.807,2.32,6.204,3.449,9.582,3.449
	c4.336,0,8.641-1.863,11.618-5.467c5.297-6.413,4.392-15.904-2.019-21.201L268.947,425.1v-31.873l25.936,16.348
	c2.494,1.571,5.271,2.322,8.015,2.322c4.999,0,9.89-2.489,12.754-7.031C320.085,397.826,317.977,388.528,310.941,384.093z"/>
<g>
	<path style="fill:#F2F2FF;" d="M253.887,67.27c-8.316,0-15.059-6.742-15.059-15.059V15.059C238.829,6.742,245.571,0,253.887,0
		s15.059,6.742,15.059,15.059v37.153C268.946,60.527,262.204,67.27,253.887,67.27z"/>
	<path style="fill:#F2F2FF;" d="M253.887,167.66c-8.316,0-15.059-6.742-15.059-15.059v-37.153c0-8.316,6.742-15.059,15.059-15.059
		s15.059,6.742,15.059,15.059v37.153C268.946,160.918,262.204,167.66,253.887,167.66z"/>
	<path style="fill:#F2F2FF;" d="M253.887,268.051c-8.316,0-15.059-6.742-15.059-15.059V215.84c0-8.316,6.742-15.059,15.059-15.059
		s15.059,6.742,15.059,15.059v37.153C268.946,261.309,262.204,268.051,253.887,268.051z"/>
</g>
<path style="fill:#BAC6DB;" d="M267.387,462.873c2.807,2.32,6.204,3.449,9.582,3.449c4.336,0,8.641-1.863,11.618-5.467
	c5.297-6.413,4.392-15.904-2.019-21.201l-17.622-14.557v-31.873l25.936,16.348c2.494,1.571,5.271,2.322,8.015,2.322
	c4.999,0,9.89-2.489,12.754-7.031c4.434-7.035,2.326-16.335-4.709-20.769l-41.995-26.47v-37.87c0-8.316-6.742-15.059-15.059-15.059
	v147.028L267.387,462.873z"/>
<g>
	<path style="fill:#D5DEED;" d="M268.946,252.992V215.84c0-8.316-6.742-15.059-15.059-15.059v67.27
		C262.204,268.051,268.946,261.309,268.946,252.992z"/>
	<path style="fill:#D5DEED;" d="M268.946,152.602v-37.153c0-8.316-6.742-15.059-15.059-15.059v67.27
		C262.204,167.66,268.946,160.918,268.946,152.602z"/>
	<path style="fill:#D5DEED;" d="M268.946,52.211V15.059C268.946,6.742,262.204,0,253.887,0v67.27
		C262.204,67.27,268.946,60.527,268.946,52.211z"/>
</g>
<g>
</g>
<g>
</g>
<g>
</g>
<g>
</g>
<g>
</g>
<g>
</g>
<g>
</g>
<g>
</g>
<g>
</g>
<g>
</g>
<g>
</g>
<g>
</g>
<g>
</g>
<g>
</g>
<g>
</g>
</svg>
